<svg id="Layer_1" data-name="Layer 1" xmlns="http://www.w3.org/2000/svg" viewBox="0 0 354.33 168.67"><defs><style>.cls-1{fill:#fff;}</style></defs><title>line</title><path class="cls-1" d="M315.43,63c.37,0,.19-.41.24-.49C315.07,62.72,315.46,63.15,315.43,63Z"/><polygon class="cls-1" points="309.56 64.68 309.64 64.5 308.81 65.01 309.56 64.68"/><path class="cls-1" d="M304,65.32c.61.63,2-.36,3-.22l.18.14.38-.62A18.46,18.46,0,0,1,304,65.32Z"/><path class="cls-1" d="M300.82,64.18c.22.25-.61.32.7,0l-.13-.05A5.58,5.58,0,0,1,300.82,64.18Z"/><path class="cls-1" d="M301.38,64.12c.58-.1-.41-.18,0,0Z"/><path class="cls-1" d="M298.7,64.63l.74-.35c-.18-.14-.88-.09-.63-.24C298,64.28,298.21,64.42,298.7,64.63Z"/><path class="cls-1" d="M298,65.24l.39-.16C298.34,65,298.23,65,298,65.24Z"/><path class="cls-1" d="M299.24,64.76l-.82.33c.13.1.17.33.38-.13C298.75,65.18,298.9,65,299.24,64.76Z"/><path class="cls-1" d="M299.73,64.8c.45.1,1,.12.28.47C301.48,65,301.2,64.51,299.73,64.8Z"/><path class="cls-1" d="M303.78,66.09l.6.13.47-.3C304.62,66.07,303.72,65.88,303.78,66.09Z"/><path class="cls-1" d="M293.83,64.89c0,.16.31.37.4.55l.55-.25C294.47,65.13,293.9,65.11,293.83,64.89Z"/><path class="cls-1" d="M294.23,65.45l-.82.37C294.18,65.75,294.3,65.61,294.23,65.45Z"/><polygon class="cls-1" points="298 66.05 299.33 65.32 297.73 66.09 298 66.05"/><polygon class="cls-1" points="290.57 65.31 291 64.89 290.22 65.54 290.57 65.31"/><path class="cls-1" d="M288.42,65.67c.32-.34-.56-.42-.2-.65a4.35,4.35,0,0,0-1.47.74A2.73,2.73,0,0,1,288.42,65.67Z"/><path class="cls-1" d="M286,66.19a5,5,0,0,0,.71-.43A2.6,2.6,0,0,0,286,66.19Z"/><path class="cls-1" d="M291.95,65.93a.93.93,0,0,0-.73-.34l.39.38Z"/><path class="cls-1" d="M291.62,66h0l-.73.08Z"/><path class="cls-1" d="M292,65.92h-.08S292,66,292,65.92Z"/><path class="cls-1" d="M295.71,66c-.47.3-1.48.69-.42.92C295.61,66.54,295,66.41,295.71,66Z"/><path class="cls-1" d="M292.52,66.4l.92,0c0-.11-.22-.25,0-.4Z"/><polygon class="cls-1" points="292.09 66.59 292.52 66.4 292.18 66.41 292.09 66.59"/><path class="cls-1" d="M287.64,66.37a3.52,3.52,0,0,1-1.27.41,9.82,9.82,0,0,0,1.58-.09C288,66.55,288.19,66.28,287.64,66.37Z"/><path class="cls-1" d="M289.58,66.22l-.08,0C289.56,66.28,289.6,66.29,289.58,66.22Z"/><polygon class="cls-1" points="281.62 67.45 281.71 67.52 281.71 67.44 281.62 67.45"/><path class="cls-1" d="M288,66.76a1.07,1.07,0,0,0,.82-.27,7,7,0,0,1-.92.2C287.93,66.76,287.93,66.8,288,66.76Z"/><path class="cls-1" d="M284.74,66.58a5.37,5.37,0,0,0,.71.14C285.23,66.61,284.79,66.46,284.74,66.58Z"/><path class="cls-1" d="M289.35,66.16l.06,0C289.27,66.06,289.29,66.1,289.35,66.16Z"/><path class="cls-1" d="M289.35,66.16a2.37,2.37,0,0,0-.48.33,3.91,3.91,0,0,0,.63-.23A.59.59,0,0,1,289.35,66.16Z"/><path class="cls-1" d="M280.56,70.37c0-.4,1-.91,1.92-.61.83-.42.08-1.63-.78-2.24,0,.17,0,.33-.84.69.34.17,2.05.22,1.35.68-1.15.37-1,0-1.59-.13.56.42-1.4.92-1,1.6l1-.4C280.61,70.07,280.26,70.3,280.56,70.37Z"/><path class="cls-1" d="M283.41,67.32l.36-.1a3.77,3.77,0,0,1-1.35-.35c-.59.28-.69.44-.72.58l1.82-.2Z"/><path class="cls-1" d="M285.43,67c-.23.47-1.09.77-.48,1.16,1.07-.18.71-.46,1.33-.74-1.73.35.47-.31-.82-.37a6.26,6.26,0,0,1,.93-.25,8.71,8.71,0,0,1-.93-.07l0,0h0c.08,0,.11.07,0,.05h0a.45.45,0,0,1-.06.17c-.52,0-.09-.1.06-.17a.37.37,0,0,0,0-.07h0l-1.71.48A8.18,8.18,0,0,0,285.43,67Z"/><path class="cls-1" d="M294.48,67.92a.11.11,0,0,1-.07-.09C294.3,67.89,294.26,67.94,294.48,67.92Z"/><path class="cls-1" d="M293.72,67.76a.82.82,0,0,1,.62-.27c.38.08,0,.2.06.34.23-.15.83-.42,0-.53l-.12.07c-.72-.05-1.7-.47-1.58-.54A3,3,0,0,0,293.72,67.76Z"/><path class="cls-1" d="M289.54,67.48l-1.42.41.79.27-.07-.22C289.68,67.91,289.46,67.66,289.54,67.48Z"/><polygon class="cls-1" points="281.42 67.26 281.55 66.78 280.8 67.54 281.42 67.26"/><polygon class="cls-1" points="279.54 67.58 279.56 67.18 279.09 67.48 279.54 67.58"/><path class="cls-1" d="M174,88.63l-.41.18A2,2,0,0,0,174,88.63Z"/><path class="cls-1" d="M177.09,88.18l0-.2C177,88.1,177,88.19,177.09,88.18Z"/><path class="cls-1" d="M233.26,74.54c-.68-.27-1.46-.73-1.31-.3l.26.4A2.1,2.1,0,0,1,233.26,74.54Z"/><path class="cls-1" d="M202,82l.2.1.36-.47Z"/><path class="cls-1" d="M201.83,83.83l-.86-.15A3.59,3.59,0,0,0,201.83,83.83Z"/><path class="cls-1" d="M157.24,91.67l-.43.51C157.59,92.06,157.21,91.89,157.24,91.67Z"/><path class="cls-1" d="M260.24,70.55a5.44,5.44,0,0,0-1.37-.06C259.55,70.65,260.13,70.94,260.24,70.55Z"/><path class="cls-1" d="M174.52,83.89c-.25.12-.35.22-.32.32C174.45,84.1,174.59,84,174.52,83.89Z"/><path class="cls-1" d="M257.32,70.73l.3.06a5.13,5.13,0,0,1,1.25-.29A1.77,1.77,0,0,0,257.32,70.73Z"/><path class="cls-1" d="M96,100.11l-.15,0C95.84,100.14,95.9,100.13,96,100.11Z"/><path class="cls-1" d="M77.65,97.71a6.66,6.66,0,0,1,.72-.08A2.1,2.1,0,0,0,77.65,97.71Z"/><path class="cls-1" d="M271.92,68.49c.4-.09.06-.06,0,0Z"/><path class="cls-1" d="M274.11,69.9a.27.27,0,0,0-.13.23A.35.35,0,0,1,274.11,69.9Z"/><path class="cls-1" d="M253.74,74h0C253.84,74.07,253.82,74.06,253.74,74Z"/><path class="cls-1" d="M272.55,68.59a3.05,3.05,0,0,0-.53-.05A3.22,3.22,0,0,0,272.55,68.59Z"/><path class="cls-1" d="M272.44,68.4h.36C272.84,68.31,272.79,68.28,272.44,68.4Z"/><path class="cls-1" d="M271.37,68.59a3.56,3.56,0,0,1,.65-.05c-.08,0-.12,0-.1-.05Z"/><path class="cls-1" d="M128.65,94.42l-.09,0C128.18,94.63,128.35,94.58,128.65,94.42Z"/><path class="cls-1" d="M223.55,80.59l0,0h-.06Z"/><path class="cls-1" d="M222.16,81.13a1.31,1.31,0,0,1,1.37-.58l-.67-1.16Z"/><path class="cls-1" d="M166.64,89.89l1.07.23c-1.12.82-2,.74-1,1.13-.06-1.36,3.89-.74,3.83-2.1l.71.18c-.19,0-.21.1-.4.12,1.39.44.81-1.12,2.5-1.19.6,0,1,.15.66.37l1.24-.53c.38,0,.32.22-.05.25l2-.41v0a8.63,8.63,0,0,1,1.12-.86c.53.12-.23.18-.08.33l1-.49c.5.28-.35.76-1.11.82,1.23,1.18.85-.48,3.17,0l-1,.33c.78.66,1.54.26,2.78.55-.31-.21-2.52-.84-1.38-1.35a2,2,0,0,0,1.39-.34c.08.48.69.26,1.46.11l0,.64c.82-.31.7-.62,1.15-1a1.43,1.43,0,0,1,1.51.75c1.52-.13-1.16-.62.6-1a7.7,7.7,0,0,0,3.57-1c.91.08-.09.41.25.54l.7-.63c.19,0,.15.15.14.23.62-.3,0-.64,1-1,.17-.74,2.27.69,3.42-.3.34.13-.09.41,0,.64a11.94,11.94,0,0,0,2.77-1.53l1.29.23c-1-.33.09-1.07,1-1.69a8.5,8.5,0,0,0-.86-.41l1.55-.59c.21.07.08.32-.14.62l.27-.2c.61.14.37.56,0,1l-.64-.3c-.34.45-.64.93-.5,1.29a1.42,1.42,0,0,1,.5-.25c-.09.12-.14.22-.08.28s.21-.11.45-.31l.47.65,0-.29,2.17.11c1.39-.94,2.54-2.19,4.87-2.85-.51.61,0,.86.07,1.48-.75-.55-1.8.56-3.06.62.66,0,.56.28.41.41l2.11-.93c0,.51.53.3,1.13.42-.59-.92,1.54-.91,2.39-1.36.11.32-.06.7-1.16.79,1.32.56,1.38-1.4,2.66-1-.27,0-.42,0-.5.21.58-.39,2.14-.39,1.82,0l-.27,0c1.79-.16,5.4-.83,5.53-1.71a5,5,0,0,1-.16,1.24l2.73-3.32c-.17.77,1.17,2.32-.24,3a3.2,3.2,0,0,0,1.83-.32c-.3-.06-.88-.93-.5-1.06a8.46,8.46,0,0,0,2.25.8c-.46-.09-.15-1.29.54-1.36-.08.19.23,1.11,0,1.26l1.53-1.37c-.39.27.07,1,.5,1.21-.21-.19,1.47-.21,1.91-.39l-.76-.15c1.94-.13,1.65-1.85,3.56-2.09-.2.26-.35,1.5.64,1.49.36-.64,1.54-3,3.16-3.74l.37.28,1.23-.57a26.05,26.05,0,0,1-3.78,4c.76.15.26.35,1.33.16.43.25-.51.55-.83.62l2.53-.19c-.21-.65,1.81-1,1.63-1.5l-2.61,1.11c-.21-.65,1.28-2.13,3.07-2.28.49.2-.16,1.23-.09,1.45a3.18,3.18,0,0,1,1.8-.56l-.7.47c1,.1,1.48-1.13,2.76-.67.42,0,1.35.67,1.36.27a4.41,4.41,0,0,1-.91-3.62,15.55,15.55,0,0,1,2.78.7c.76.49-.8,1.57-.15,2,0-.19.34-.47.48-.56.45.09-.09.59.83.37.05-.7,1.91-.23.36-.64.88-.33,1,0,2.06-.2-.41-.38.74-1.63,1.63-2,0,.18.21.37.33.46,1.88-.22,2.93-.07,4.68-.33.19.14,1.06.21.74.55a2,2,0,0,1,1-.52c1.13.43-1.19.27-.29.85,0-.4,1.31-.75,2-1.11-.33-.57-1.79.14-2.52.51-.13-.83,1.08-1.91,2.85-2.56,1.42-.42.71.45.94.29,2.75-.25,2.11-1.8,4.46-1.53,1,.4.2,1.05.45,1.41-1.15.38-1.87-.07-2.66.07l1,.11a2.66,2.66,0,0,1-1.57.39c.82.37,4.62-.59,6.79-.45.35-.23,1-.51.63-.68l-.66.17c-.67-.34,1.17-.78.29-.85a5.86,5.86,0,0,1,3.08-1l.32.57c-.05-.17-.87-.24-1.2,0,.49-.35,2,.54,2.51-.34l-.94-.29c.85-.44,1.87-1.24,3-1.2-.59-.53-.25.1-1.14-.49.81.77-2.86.37-1.62,1.13-.93-.69-1.46-.14-2.62-.68.06.2.43.33-.52.37a1,1,0,0,1-.18.21h-.07l.06,0s0,0,0,0a1.08,1.08,0,0,1,.52.23c-.4.53-1.89.73-2.36,1-.57,0,.2-.26-.14-.43l-.7.47c-.14-.43-1.58-.52-.31-1l-1.18.15a4,4,0,0,0-2.26.17c-.57,0-1.33.7-.9.28l-1.81.55,0-.11c-1.83.21-3.64,1.29-5.84.8a6.65,6.65,0,0,1-2.25.47l-.26-.35c-.77.25-2.42,0-2.7.42-1-.91-3.85.35-5.27.38l0,.51a15.49,15.49,0,0,0-3,.78l.14.43c-1,.52-2.67.08-4.27.38.08-.19.5-.21.8-.15-2.08-.71-4,1.35-5.81.89a1.42,1.42,0,0,1-1.06.16l.1,0-.18,0c-.2,0-.42-.1-.64-.14a2.23,2.23,0,0,0,.55.16,7.66,7.66,0,0,0-1.32.38l-.29-.44-.11,0c-.52-.1-.36.29,0,.6a2.8,2.8,0,0,0-.62.39c-.52-.71-1.27.46-1.94-.28-.27.45-2.46.69-2.6,1.57,0-.11-.19-.14.08-.19a2.68,2.68,0,0,0-1.6.29l-.33-.57-1.09,1c-.79-.25-1.13-.42-.47-1-1.66,1-1.39.49-2.79,1.43v-.4c-.54.1-1.31.76-1.69.48-1.32-.56-6,.82-9.16.61.78,1.06-1.52-.29-1.5.62-.22-.24-.68-.33-.21-.65-1.53.51-2.43-.07-3.41.86-.22-.25.28-.45.09-.59-.12.08-.46.31-.65.18s.2-.26.43-.42c-1.6.3-1.63,1.16-1.63,2a1.4,1.4,0,0,0-1.78.48c-.32-.21-.84-.41.15-.66-.57,0-3.5.16-3.45.8-.2-.13-.79.07-.93.17a23.6,23.6,0,0,0-2.62.37l.36,0c-.37.84-1,.33-2,.58l0-.08c-2.38-.19-.95.42-3.31.14l.2.46c-.05,1.05-2.1-.29-3.35.3l.52.2c-.66.46-2.22-1.08-3-1.09-.17-.06.23-.18.43-.28-2-.31-.15.66-1.53,1-.31-.3.2-.9-.75-.82-.51-.2-2.57,1.51-4,1.07.32.21.65.43,0,.72-1,.25-2.85-.56-3.63.4-.14-.05-.2-.11-.21-.17-.73.33-2.43.73-2.82,1.25-1-1.53-4.63,1.53-4.84,0l-2.34.44,0-.16a3.4,3.4,0,0,0-2.47,1c-.36,0-.13-.23-.11-.31a5.87,5.87,0,0,0-4.18,1.16l-.27-.46c-.46.36-3.29-.28-5.36.62a.37.37,0,0,1,.2-.26c-2.33.95-6-.48-6.62,1.44l-1.53.68c2.09-.17-.19.82.7,1-.8.23-2.18-.22-1.2-.46l.17.07c.23-1-2.62.06-2.66-.59-4.06.65-8.11.75-11.93,1.25l.55.66-1.34.15c-.37-.12-.55-.5.4-.61-.56-.34-1.54.58-1.55.74-1.9,0,.6-.95,0-.88l-.77.17.19.06c-.58.39-.59.71-1.74.84-.74,0-.44-.39-.72-.38,0-.05-.11-.06-.44,0l-1.68.18.75.47c-.7.39-1.58.2-.71.73-1.28-.84-6.3.56-7,.33a7.85,7.85,0,0,1-3.29.82c.33.08.61.69-.5.77.22-1.38-2.09-.3-3.11-1.13.88.52-3.1.59-1.73,1.32-.93,0-.12-.49-.86-.71-2.11.83-4.85.32-7.52.83,0,.18.47.39-.08.72l-1.53-.69c-.52.15-.36,1.07-1.41.59.16.13.39.32,0,.43a50,50,0,0,0-8.07.79,23.6,23.6,0,0,1-8.17.1c.75.29.27.36-.28.41.37.06,0,.43.12.67l-2.28-.5c-.37.69-2.39.21-2.59.86l.7-.16c-.91.81,1.41,1.56,1.34,2.53,1-.93,2.94,1.06,4.61-.29.4.15-.3.34-.07.54.41-.46.93-.6,1.95-.52l-.1.11c2.78-.4,4-.13,7.19-.2l-.29-.45a3,3,0,0,1,1.17.21c.69-.8-1.9.16-1.29-.7,1,.89,4.74-.57,5.47.45,1-.12-.37-.51.66-.63l.31.26.21-.41c.68,0,1.07.3,1.13.55a2.91,2.91,0,0,0-.63.17c.92.24,2.46-.43,2.78-.36l-1-.06c2.79-.62,6.28-.68,8.91-1.67l-.24-.19c2-.7,1.69,0,3.95-.49l-.08.06a3.69,3.69,0,0,1,1.65-.54c-.54.34,1.15.35.44.75,2.19-.75,1.07-.5,2.43-1.53l.39.32a2.44,2.44,0,0,1,1.6-.84c-.89.45.81.46-.18,1,2.5.46,3.42-1.32,4.69-.31.95-1.17-2.14-.26-1.56-.57-.56-.26.79-.89,1.56-.9s1.48,1.11,3.39.81c-.19,0-.19.1-.38.12.75.16,1.35-.55,2.29-.26.4-.69,1.15-.13,1.17-.93l-1.73.44c1-.35,1.77-1.4,3.47-1.2a2.9,2.9,0,0,1-.88.62c.51.16.9-.29,1.43-.12,0,.8-2.11.48-3.09,1.23.56.26,1.94-.86,1.52.07.61-1.19,1.91-.14,3.08-1.15l0,.48a2.86,2.86,0,0,1,1-.43l-.59.71c1-.67,2.09.16,3.06-.28-2.11.33-.56-.49-1.5-.7,2.51-1,1.68,1,4.55.34-.38.13-1.52-.06-.94-.37a4.72,4.72,0,0,1,1.7.28c1.91-.39-.37-.44.41-.85.74.47.91-.37,1.73-.68l.08.48c2.24,0,.43-1.08,2.47-1l-.74.79,1-.33-.13.57a4.14,4.14,0,0,1,2.55-.53c-.31-.3,0-.89,1-1,.71.18-.3.51,1.07.23-.27.34-.55.77-1.22.42,0,.16-.26.34-.3.51a5.53,5.53,0,0,0,2.31-.28,1.62,1.62,0,0,1-.56,0l1.9-1c.34.13.11.31-.11.49a10.3,10.3,0,0,1,1.23-.51c-.1.41,0,.81-.81,1.12l1.84-.72c.15.15,1,.31.82.49,1.09.07,2.47-1.15,3.92-1.06a1,1,0,0,1,.49-.28c1.33-.11,2.57.18,4-.59l1,.56c1.2-.34-1.33-.69.66-1.27,1.41-.44.63.51,1.16.63a3.88,3.88,0,0,1,3.21-1A6.19,6.19,0,0,1,166.64,89.89Zm15-2.63c-.28.14-.81.54-1.07.3C180.83,87,181.13,87.18,181.65,87.26Zm22.7-4.7c-.19.19-.54.16-.95,0A1.94,1.94,0,0,1,204.35,82.56Zm63.25-13,0,0C266.89,69.46,267.13,69.5,267.59,69.52Zm1.38,0c.13-.09.11-.15,0-.21-.08.13-.38.19-.73.2C268.4,69.63,268.59,69.69,269,69.53ZM123.91,91.83l.28.09C123.62,92.14,123.77,92,123.91,91.83Z"/><path class="cls-1" d="M201.85,83.62a.47.47,0,0,1-.16-.24C201.59,83.48,201.6,83.57,201.85,83.62Z"/><path class="cls-1" d="M157.32,91.58h0a.21.21,0,0,0,0,.09Z"/><path class="cls-1" d="M248.64,76.7a1.24,1.24,0,0,1-.57-.17C248.07,76.65,248.21,76.73,248.64,76.7Z"/><path class="cls-1" d="M276,67.66l-.85.25a1.52,1.52,0,0,1,.8,0C275.95,67.85,275.76,67.71,276,67.66Z"/><path class="cls-1" d="M284,69.56c.12-.08.27,0,.38-.12l-.07-.22C283.76,69.31,283.41,69.54,284,69.56Z"/><path class="cls-1" d="M277.06,69.13c.13.39.65.18,1.25,0l-.11,0C278.3,68.58,277.68,68.86,277.06,69.13Z"/><path class="cls-1" d="M278.45,69.12A2.86,2.86,0,0,1,279,69C279,68.8,278.77,69,278.45,69.12Z"/><path class="cls-1" d="M270.66,69c.3.06.11-.54.29-.4C271.19,68.05,269.12,69.51,270.66,69Z"/><polygon class="cls-1" points="277.74 70.39 277.45 69.92 277.17 70.37 277.74 70.39"/><path class="cls-1" d="M272.9,70.72h1c0-.08.09-.15.24-.21C273.52,70.58,272.86,70.58,272.9,70.72Z"/><path class="cls-1" d="M274.12,70.51a2,2,0,0,0,.77-.2A4.4,4.4,0,0,0,274.12,70.51Z"/><polygon class="cls-1" points="276.44 70.73 276.14 70.67 275.45 70.73 276.44 70.73"/><path class="cls-1" d="M262.46,72.16l-1,.3c-.08.19.22.25.61.12S262.65,72.3,262.46,72.16Z"/><path class="cls-1" d="M265.86,73c-.3-.06-.34-.17-.52-.31l.06.62Z"/><path class="cls-1" d="M262.8,73.64c-.08.19-1.46.71-.13.48C262.75,73.94,263.79,73.64,262.8,73.64Z"/><polygon class="cls-1" points="246.75 75.26 247.02 75.21 246.83 74.21 246.75 75.26"/><path class="cls-1" d="M233.08,79.81c1.29,0,.2-.67,1.38-.54.26-.28-1-.1-.69-.36C233.05,79.29,232.63,79.21,233.08,79.81Z"/><path class="cls-1" d="M233.77,78.92a3.29,3.29,0,0,0,.36-.21A1.43,1.43,0,0,0,233.77,78.92Z"/><polygon class="cls-1" points="74.69 97.37 73.88 97.21 74.41 97.52 74.69 97.37"/><path class="cls-1" d="M73.19,98.23,73,97.6l-.46.62C72.7,98.18,73,98.1,73.19,98.23Z"/><path class="cls-1" d="M184.09,88.21l0-.16c-.15-.15-.34-.13-.72-.1Z"/><polygon class="cls-1" points="173.09 89.42 173.28 89.4 172.84 88.87 173.09 89.42"/><path class="cls-1" d="M164,91.57c.38,0,.8-.23,1.18-.26C164.41,91.53,163.82,90.86,164,91.57Z"/><path class="cls-1" d="M64.39,104s.38,0,.46,0C64.76,104,64.28,104,64.39,104Z"/><polygon class="cls-1" points="63.44 103.8 63.61 103.81 63.19 103.78 63.44 103.8"/><path class="cls-1" d="M63.45,103.65c-.71,0,.12.06-.14.08h.41C63.63,103.71,63.25,103.67,63.45,103.65Z"/><path class="cls-1" d="M65,103.56c-.28,0-.24,0-.09,0H65S65,103.57,65,103.56Z"/><path class="cls-1" d="M65,103.58s.23,0,0,0Z"/><path class="cls-1" d="M64.82,103.5l.25,0c.16,0,.2,0,.32,0A2.91,2.91,0,0,0,64.82,103.5Z"/><path class="cls-1" d="M64.29,103.48h.1C64.47,103.49,64.49,103.49,64.29,103.48Z"/><path class="cls-1" d="M64.62,103.52l-.22,0c-.11,0-.35,0,.08,0C64.27,103.5,64.47,103.51,64.62,103.52Z"/><path class="cls-1" d="M64.51,103.53a2.35,2.35,0,0,1-.5,0C64.11,103.58,64.61,103.57,64.51,103.53Z"/><path class="cls-1" d="M62.71,103.64l-.21,0h.24C62.62,103.66,62.93,103.64,62.71,103.64Z"/><path class="cls-1" d="M65.19,103.37h-.6l.17,0A4.07,4.07,0,0,1,65.19,103.37Z"/><path class="cls-1" d="M64.59,103.38l-.26,0S64.42,103.38,64.59,103.38Z"/><polygon class="cls-1" points="63.5 103.48 64.05 103.52 63.49 103.47 63.5 103.48"/><polygon class="cls-1" points="65.2 103.28 65.56 103.29 65.03 103.27 65.2 103.28"/><path class="cls-1" d="M65.14,103.22c.29,0,.49,0,.67,0a4.9,4.9,0,0,0-.53,0C65.41,103.19,65.38,103.2,65.14,103.22Z"/><path class="cls-1" d="M65,103.15l.33,0Z"/><path class="cls-1" d="M64.4,103.31l.43,0H64.4Z"/><path class="cls-1" d="M64.39,103.3h0l0,0Z"/><path class="cls-1" d="M64.4,103.32h0S64.34,103.32,64.4,103.32Z"/><path class="cls-1" d="M63.89,103.42a5.47,5.47,0,0,0-.86,0C63.32,103.41,63.53,103.4,63.89,103.42Z"/><path class="cls-1" d="M63.86,103.33l-.1,0h.4Z"/><polygon class="cls-1" points="63.73 103.32 63.87 103.33 63.9 103.32 63.73 103.32"/><path class="cls-1" d="M64.56,103.19c-.19,0-.2,0-.23,0s-.13,0-.13,0A1.9,1.9,0,0,0,64.56,103.19Z"/><path class="cls-1" d="M64.44,103.25h0Z"/><path class="cls-1" d="M64.33,103h0Z"/><path class="cls-1" d="M64.12,103.2c-.08,0,0,0,.15,0l-.07,0Z"/><path class="cls-1" d="M64.76,103.11l-.23,0C64.66,103.13,64.87,103.12,64.76,103.11Z"/><path class="cls-1" d="M64.54,103.24h0C64.65,103.24,64.6,103.24,64.54,103.24Z"/><path class="cls-1" d="M64.54,103.24h-.26l.14,0Z"/><path class="cls-1" d="M61.59,103c.4,0,.76,0,.34.06.3,0,1.6,0,2.33,0a5,5,0,0,1-.57,0,6.91,6.91,0,0,1-.86,0c-.2,0,.14,0,.35,0-.49,0-.72,0-1.44,0l.26,0Z"/><path class="cls-1" d="M64.21,103.07h0l.54,0-.47,0-.06.05Z"/><path class="cls-1" d="M64.26,103.13c-.43,0-.61,0-1.08,0a4.1,4.1,0,0,0,.55,0c-.11,0,.24,0,.48,0l.11,0,.2,0h-.26a.45.45,0,0,1,.16,0h.07l-.24,0C64.2,103.09,64.22,103.11,64.26,103.13Z"/><path class="cls-1" d="M62.1,103.38h0Z"/><path class="cls-1" d="M62.36,103.36c.06,0,.23,0,.19,0H62.2a3,3,0,0,0,.52,0h-.06c.15,0,.69,0,.74,0Z"/><path class="cls-1" d="M63.2,103.24l-.21,0-.37,0h.22C62.76,103.24,63,103.24,63.2,103.24Z"/><polygon class="cls-1" points="64.55 103.02 65 103.03 64.36 103 64.55 103.02"/><polygon class="cls-1" points="64.49 102.97 64.89 102.97 64.65 102.95 64.49 102.97"/><path class="cls-1" d="M59.58,100h0Z"/><path class="cls-1" d="M59.55,100.07h0Z"/><path class="cls-1" d="M64.45,101.67c.37,0,.94,0,.5,0h-.43C64.59,101.65,64.54,101.66,64.45,101.67Z"/><path class="cls-1" d="M61.86,100.78h.28Z"/><path class="cls-1" d="M60.06,100.76l.28,0Z"/><path class="cls-1" d="M59.12,99.51h-.44A2.1,2.1,0,0,0,59.12,99.51Z"/><path class="cls-1" d="M64.33,102.42l.26,0C64.34,102.41,64,102.42,64.33,102.42Z"/><path class="cls-1" d="M64.19,100h0Z"/><path class="cls-1" d="M64.59,102.34h-.1c.07,0,.13,0,.1,0C64.78,102.37,64.89,102.36,64.59,102.34Z"/><path class="cls-1" d="M59.48,97.79h0Z"/><path class="cls-1" d="M63.86,97.29s0,0,0,0S63.92,97.3,63.86,97.29Z"/><path class="cls-1" d="M64.68,102.75s0,0,0,0Z"/><path class="cls-1" d="M63,102.81h0Z"/><path class="cls-1" d="M61.89,102.23h0C61.81,102.23,61.82,102.23,61.89,102.23Z"/><path class="cls-1" d="M64.48,102.77h0Z"/><path class="cls-1" d="M64.69,102.77h0C64.72,102.78,64.76,102.78,64.69,102.77Z"/><path class="cls-1" d="M64.66,102.74l0,0h.07Z"/><path class="cls-1" d="M60.64,98.71h0C60.5,98.7,60.53,98.7,60.64,98.71Z"/><path class="cls-1" d="M59.94,101.37h0Z"/><path class="cls-1" d="M59.62,101.33c.54,0,.47,0,.36,0h1.25Z"/><path class="cls-1" d="M59.46,99.77l-.39,0a5.41,5.41,0,0,0-1,0c1.36,0,.14.11,1.5.11l-.29,0h-.05c-.65,0,1,0,.79.07a2.41,2.41,0,0,1-.46,0l.34,0a.84.84,0,0,1-.24,0l.11.06h0l.68,0a3,3,0,0,1-.31,0l.33,0a2,2,0,0,1-.64,0c-1.36,0,.34,0-.45.09l-.17,0a8.35,8.35,0,0,0-1,.07c.25,0,1.21-.07,1.55,0-.1,0-.15,0,.12,0-.48,0-.36,0-.34,0H58.9c.18,0,.51,0,.8,0a8.66,8.66,0,0,1-1,0c-.1,0,.79,0,.92,0-.24,0,0,.06.4.1-.22,0-.39,0-.57,0l.51,0h-.25c.2,0,.64,0,.81,0,.7,0-1,.06-.23.1h-.64c.53,0,.38,0,1.09.08l-.42,0a14.23,14.23,0,0,1,1.52,0l.53,0,.34,0h-.44c-.24,0-.61,0-1,0l.4,0-1.19,0h-.28l-.45.06c.72,0,1.77.08,2.07.15-.52,0-.85,0-1.47,0,.66,0-.28-.05-.15-.09a3.1,3.1,0,0,1-.47,0l.6.06a3.09,3.09,0,0,0-.59,0,2.62,2.62,0,0,1,1,.07c-.34,0-.68,0-.6,0-.75,0,1.18,0,.54.08,0,0,0,0-.13,0,.3,0,.06.06-.23.05h0c-.12,0,0,.15.84.16H60l2.86.09c-.73,0-2.47,0-2.88,0-.1,0-.23,0,0,.05.1,0,1.06,0,1.12,0-.81,0-.43,0-1.13.06.16,0,1.3,0,1.27,0H60l1.12,0c-.2,0-1,0-1.27,0,.22,0,0,0,.09.05l.26,0c-.17.05,1.58.05,1.52.11-.23,0-1.43,0-1.57,0,.58,0,2.77.06,3.21.1H63l.38,0-3.4-.12c-.26,0-.39,0-.36,0a1.84,1.84,0,0,1-.49,0l-.2.07c.67,0,.67.05,1.23.05l-.7-.08a10.16,10.16,0,0,1,1.79.09c-.27,0-1.2,0-1.42,0,.23,0,.44,0,.28.05l-.36,0c-.25,0,.89,0,.25.08,0,0-.87,0-.47,0,.77,0,3.14,0,3.72,0-.05,0-.73.06-1.11.07-.6,0-1.43,0-2,0l.48,0c-.16,0-.57,0-.49,0,.68,0-.06.05.58,0,.19,0-.14,0-.11.06.44,0,1.5,0,1.69.05h-.5c-.06.05-.37.08-.38.13-.17,0-.37,0-.66,0a2.69,2.69,0,0,1,.37,0c-.59,0-.09,0-.8,0a6.7,6.7,0,0,1,.79.06c.61,0,.12,0-.13-.07a20.76,20.76,0,0,1,2.12.09c.21,0-.55,0-.43,0-.15.08,1.47.07.86.13s-1.07,0-1.46,0c-.2,0,.34-.05.32-.07l-.25,0c-.18,0-.31,0-.16,0-.48,0-.09.13-.54.19a5.57,5.57,0,0,0,.58,0l-.07,0c.43,0,.6,0,.8,0s.78.05.54.09h-.61c.18,0,.36,0,.18,0,.27,0-.83.05,0,.07l.42,0c.31,0,1,.06.77.09.61,0-.07,0,.64,0-.88,0,0-.08-.89,0,.82,0,.35,0,1-.07-.2,0-.39,0-.29,0h-.5a6.49,6.49,0,0,1-.69-.07c.1,0,.23,0,.45,0l-.36,0a8.79,8.79,0,0,1,1,0l0,0c.25,0,.35,0,.16-.06.1,0-.5,0-.15,0l-.28-.05h.11c.06-.05-.74-.11.07-.16-.11,0-.25,0-.12-.06h.39c-.14,0,.39-.07,0-.08,1,0,.23-.11.41-.15h-.51s-.12-.05-.32-.09h-.45c-.37,0,.32-.07.27-.12.17,0,.13,0,0,0,1-.05-.74-.11,0-.16-.16,0-.11,0,0,0h0l.24,0h-.24l-.18,0h.47a2.52,2.52,0,0,0-.59,0l-.29,0c.78,0-.26,0,.57-.05-.4,0-.3-.07-1.16-.08h.17c.1,0,.19,0,0,0h.61l-.82,0a8.87,8.87,0,0,1,1.06,0c-.73,0-.27,0-1-.08h.4s-.55,0-.22,0c.75,0,.1-.17.8-.25-1.17,0,.52,0-.38,0,.28,0,.43,0,.67,0-.27,0,.44-.07-.32-.1h.57c-.06,0-.24,0-.08,0a3.09,3.09,0,0,1,.35,0,13,13,0,0,0-1.69-.05c.38,0,.32,0-.2-.05a3.33,3.33,0,0,1,.63,0s.38-.1-.26-.1c.16,0,0,0,0,0s.1,0,0-.07h-.1c-.77,0-.17,0-.26-.06H63c.56-.06-.27,0,.37-.09h-.48c-1,0,.61-.06.21-.09h-.27c-.35,0,1.4-.06,1.53-.08a1.22,1.22,0,0,1,.21,0c.61-.05-.63,0-.77,0,.34,0,.86,0,.93,0,.27,0-1.1-.08-.45-.11a6.45,6.45,0,0,1-.72,0c-.09,0,1-.08.16-.1h.21a6.3,6.3,0,0,0-.8-.08c1.66,0-.81-.13.72-.13l-.08-.07h.16c.1,0-.27-.06-.63-.07h.33c.31-.06.24-.07-.52-.12h.5c-.29,0,.78-.09.2-.15H64c-.58-.07,1.37-.16-.43-.19l-.44,0a10.6,10.6,0,0,1-1.08,0,2.13,2.13,0,0,1,.64,0H62.6c.94,0,.33-.07,1-.07,0-.11.47-.23.51-.33h-.73l0,0a2.2,2.2,0,0,1,.54,0c.41,0-.35,0-.51,0a6.34,6.34,0,0,1,.87,0l-.05,0h-.09c-.3,0-.62,0-.58-.05s.45,0,.48,0,.08,0,0,0l.06,0-.58,0a1.89,1.89,0,0,0-.62,0c1,0,.36-.18.67-.2-.42,0-.41-.06-.36-.09a3.42,3.42,0,0,1-.69,0,13.84,13.84,0,0,0,1.55-.08c-.64,0-.16-.09-1.07-.05.11,0,.5,0,.82,0-.52-.06.34-.13.16-.21s-.44,0-.71,0l.88,0c-.09,0-1,0-.41,0h-.43c.86-.15-.7-.3.91-.45-.34,0-.37,0-.39,0h-.67l.66-.06c-.66,0,0-.07-.68-.07l.11,0c-.75,0-1.66,0-2.62,0,.85,0-1.26.08,0,.13-.2,0-.31,0-.53,0,.41,0,.5,0,.31.05h-.1c.1.08-.3.11-.57.2h.47a2.38,2.38,0,0,1-.33,0c.72,0,0-.05.83,0-1,0,0,.13-1.11.15,0,0,.55,0,.54,0h.09a5.73,5.73,0,0,1-.68,0s-.07,0-.09,0c-.35,0,.12.07,0,.08l.18,0c.28.08-.11.18.49.25h.22c.41.06-.25,0-.05.11h-.05c.22,0,.34,0,.31,0-.26,0-.51,0-.8,0a9.69,9.69,0,0,0,1.18.07h-.37a3.14,3.14,0,0,1,.61,0c-.32,0-.56,0-1,0-.81.07.82.1-.37.13,1,0,.57-.06.79,0s.77,0,.66,0-1.31,0-1.29.09h-.07c-.26,0,.35,0-.07.06.62,0,0,0,.76,0l-.18,0c.21,0,1.13.05.68.1l-.49,0c-.23,0,.15,0-.09,0-.79,0-.17-.06-.78-.09-.33,0,.57.06-.28,0,1.09,0-.14.05.7.09h-.47a2,2,0,0,1,.29,0l-.62,0c.52,0-.46.06-.17.09a5.25,5.25,0,0,1,.92,0c.63.07-1.24,0-1,.12a1.67,1.67,0,0,1,.5,0,4.73,4.73,0,0,1-.53,0,5.66,5.66,0,0,0,.78,0c-.58,0,.24,0,.42.05h-.48c-.31.06,1,0,.63.07l-.67,0,.17,0H59.4c.41,0,.3,0,.15.07a5.35,5.35,0,0,1,.89,0c-.29,0-.46,0-.39,0-.3,0-.68,0-.24,0h-.46c-.33,0-.07.05-.07.06l.11,0,.67.06a4.54,4.54,0,0,1-.47,0c.05,0,.27,0,.32,0-.39,0-.8,0-1,0l.44.05c-.17,0-.47,0-.61,0s.76.07.46.11h.2c-.09,0-.57.07,0,.11l-.7,0c.16,0,.89,0,1.15,0s-.6,0-.79,0c.35,0,1.08.06.5.09C59.4,99.79,59.51,99.78,59.46,99.77Zm.31.42c-.1,0-.41,0-.13,0C60.19,100.17,59.93,100.18,59.77,100.2Zm1.16.64c-.16,0-.08,0,.1,0S61.05,100.83,60.93,100.84Zm3.36,1.79h0C64.45,102.61,64.38,102.62,64.29,102.63Zm-.21,0h.2c-.12,0-.13,0-.1,0C64.06,102.65,64,102.66,64.08,102.67Zm-.19-4.08h-.13C63.62,98.58,63.75,98.59,63.89,98.59Z"/><path class="cls-1" d="M60.27,100.77h0Z"/><path class="cls-1" d="M59.2,99.51h0Z"/><path class="cls-1" d="M60,102.08l.25,0A1.1,1.1,0,0,0,60,102.08Z"/><path class="cls-1" d="M64.9,102.87l-.13,0s-.08,0-.16,0Z"/><path class="cls-1" d="M61.91,103.08h.29A.81.81,0,0,0,61.91,103.08Z"/><path class="cls-1" d="M63.3,102.89c-.41,0-.27,0-.19,0s0,0,0,0C63.67,102.93,63.48,102.91,63.3,102.89Z"/><path class="cls-1" d="M63.12,102.93s0,0,0,0C63.35,102.95,63.17,102.94,63.12,102.93Z"/><path class="cls-1" d="M64.35,102.72c-.1,0,.52,0,.35,0C65.22,102.74,64.08,102.67,64.35,102.72Z"/><polygon class="cls-1" points="61.96 102.91 62.46 102.9 62.06 102.89 61.96 102.91"/><path class="cls-1" d="M62.33,102.77l-.14,0h.17S62.48,102.77,62.33,102.77Z"/><path class="cls-1" d="M62.36,102.81s0,0,.08,0Z"/><polygon class="cls-1" points="61.81 102.87 61.91 102.86 61.95 102.84 61.81 102.87"/><path class="cls-1" d="M62.42,102.48l-.14,0c-.17,0-.28,0-.21,0A3.06,3.06,0,0,0,62.42,102.48Z"/><path class="cls-1" d="M61.05,102.57h0Z"/><path class="cls-1" d="M60.91,102.48c-.17,0-.49,0-.46,0A2.31,2.31,0,0,0,60.91,102.48Z"/><polygon class="cls-1" points="61.69 102.03 61.7 102.04 62.72 102.04 61.69 102.03"/><path class="cls-1" d="M59.26,101.64c-.24,0,.63,0,.32,0,.24,0,.25,0,.46,0A4,4,0,0,0,59.26,101.64Z"/><path class="cls-1" d="M60,101.66h0Z"/><polygon class="cls-1" points="64.41 97.21 64.62 97.19 64.28 97.2 64.41 97.21"/><path class="cls-1" d="M63.65,97.16h.06S63.8,97.16,63.65,97.16Z"/><path class="cls-1" d="M58.46,100.26h.16c.17,0,.18,0,.21,0Z"/><polygon class="cls-1" points="58.95 99.95 58.93 99.96 59.52 99.95 58.95 99.95"/><path class="cls-1" d="M58.2,99.69s.11,0,.08,0S58.93,99.69,58.2,99.69Z"/></svg>